<?xml version="1.0" encoding="UTF-8"?>
<svg width="69px" height="57px" viewBox="0 0 69 57" version="1.1" xmlns="http://www.w3.org/2000/svg" xmlns:xlink="http://www.w3.org/1999/xlink">
    <!-- Generator: Sketch 59.1 (86144) - https://sketch.com -->
    <title>Group</title>
    <desc>Created with Sketch.</desc>
    <g id="Symbols" stroke="none" stroke-width="1" fill="none" fill-rule="evenodd">
        <g id="icon-contact" transform="translate(-2.000000, -8.000000)" fill="#848484">
            <g id="Group" transform="translate(2.000000, 8.000000)">
                <polygon id="Fill-1" points="38.4354703 37.2872144 40.4716303 39.3248143 53.2804297 26.5160149 66.0877892 39.3248143 68.1239491 37.2872144 53.2804297 22.442255"></polygon>
                <polygon id="Fill-2" points="51.8399978 56.1595656 54.7199976 56.1595656 54.7199976 24.4795669 51.8399978 24.4795669"></polygon>
                <polygon id="Fill-3" points="31.6794226 18.8464312 2.2098239 0.22147199 0.671903971 2.65651189 31.6794226 22.252031 62.6883813 2.65651189 61.1504614 0.22147199"></polygon>
                <polygon id="Fill-4" points="0 -3.55271368e-15 0 47.518558 44.6399981 47.518558 44.6399981 44.6399981 2.87999988 44.6399981 2.87999988 2.87999988 60.4799974 2.87999988 60.4799974 21.5985591 63.3599973 21.5985591 63.3599973 -3.55271368e-15"></polygon>
            </g>
        </g>
    </g>
</svg>